Coordinates
version=1
nRows=13
nColumns=36
inDegrees=yes

Units are S.I. units (second, meters, Newtons, ...)
If the header above contains a line with 'inDegrees', this indicates whether rotational values are in degrees (yes) or radians (no).

endheader
time	pelvis_tilt	pelvis_list	pelvis_rotation	pelvis_tx	pelvis_ty	pelvis_tz	hip_flexion_r	hip_adduction_r	hip_rotation_r	knee_angle_r	knee_angle_r_beta	ankle_angle_r	subtalar_angle_r	mtp_angle_r	hip_flexion_l	hip_adduction_l	hip_rotation_l	knee_angle_l	knee_angle_l_beta	ankle_angle_l	subtalar_angle_l	mtp_angle_l	lumbar_extension	lumbar_bending	lumbar_rotation	arm_flex_r	arm_add_r	arm_rot_r	elbow_flex_r	pro_sup_r	arm_flex_l	arm_add_l	arm_rot_l	elbow_flex_l	pro_sup_l
      1.19000000	    -21.22764273	     -0.45456881	      1.44546576	     -0.32879070	      0.65572823	     -0.59117297	     87.43373999	    -16.24207784	      4.88819757	     93.56357000	      1.63299236	     28.52518489	     -1.32235453	     -7.38617786	     87.37931783	     -7.71631557	     10.04085162	     90.01475374	      1.57105383	     24.59413969	     -7.26763342	     -7.38617786	    -28.25376291	     -2.12477356	    -31.92872519	     88.58596425	    -44.00778251	     29.53317224	    110.02836945	     80.73931385	    -96.69767274	    -43.38017789	   -171.21520778	    133.43148413	     89.78936676
      1.20000000	    -21.81240750	     -0.48820312	      1.09336210	     -0.32554651	      0.64716269	     -0.59037471	     89.04048035	    -15.49966629	      5.68213775	     95.28181309	      1.66298136	     28.68126455	     -1.54788320	     -7.38744875	     88.83824866	     -8.04059719	     10.42738643	     91.66795582	      1.59990765	     25.12320676	     -7.26005052	     -7.38744875	    -28.44105900	     -2.03363088	    -31.23188382	     89.62498195	    -41.19643018	     29.51722687	    108.97104541	     80.78173867	    -97.11472207	    -45.94134090	   -170.95066355	    133.65077142	     89.84115090
      1.21000000	    -22.38484616	     -0.59704945	      0.85960369	     -0.32271540	      0.63908810	     -0.58988112	     90.40234886	    -14.92170946	      6.27223298	     96.73549446	      1.68835288	     29.06270637	     -1.78327269	     -7.38849644	     90.33023987	     -8.28295099	     10.85803437	     93.30236676	      1.62843350	     25.53948350	     -7.07497911	     -7.38849644	    -28.55215445	     -1.76397223	    -30.38973828	     90.95567196	    -38.58673752	     29.77844876	    107.69755443	     80.80669805	    -97.70151405	    -48.84356602	   -170.59122567	    133.81595968	     89.89785912
      1.22000000	    -22.83729891	     -0.88015682	      0.80123647	     -0.31994136	      0.63181834	     -0.59018750	     91.26493852	    -14.71544916	      6.43188341	     97.89473968	      1.70858553	     30.01003650	     -1.64171546	     -7.39342978	     91.75425736	     -8.40337464	     11.38780864	     94.90912134	      1.65647666	     26.38387975	     -5.99737396	     -7.39342978	    -28.44864261	     -0.85454671	    -28.63922591	     93.67828420	    -37.19715536	     31.90890518	    106.55315034	     81.44872853	    -97.34176869	    -53.98364352	   -168.23082141	    134.29892738	     90.45251039
      1.23000000	    -23.23523686	     -0.78788290	      0.91185009	     -0.31743974	      0.62545469	     -0.59064968	     92.02543484	    -14.79449850	      6.90368537	     98.80737408	      1.72451400	     31.03433959	     -1.85092084	     -7.39453472	     92.88458166	     -8.30646263	     11.41628277	     96.16476612	      1.67839179	     26.43496549	     -5.96136427	     -7.39453472	    -28.63015479	     -0.54380626	    -28.01229813	     95.07495942	    -34.59398960	     32.14796839	    104.86786242	     81.44457297	    -98.17916124	    -57.24787866	   -167.99031403	    134.30920968	     90.57335652
      1.24000000	    -23.62222210	     -0.90344780	      1.12548847	     -0.31481194	      0.61981827	     -0.59176137	     92.54753725	    -15.13911300	      7.08246543	     99.60806662	      1.73848872	     32.67635313	     -0.81772709	     -7.40006724	     93.96248513	     -8.11603995	     11.60095102	     97.30818906	      1.69834829	     26.73793826	     -5.57943720	     -7.40006724	    -28.29973669	      0.32655147	    -25.11374586	     97.81152125	    -35.06055287	     34.52170504	    104.33274423	     82.27326019	    -98.64701321	    -65.38651146	   -165.87196094	    134.24848091	     91.68107376
      1.25000000	    -24.11640061	     -0.95843373	      1.42186288	     -0.31223897	      0.61503677	     -0.59285750	     93.19178968	    -15.57285009	      7.28452699	    100.29283412	      1.75044017	     33.60783193	     -0.50436927	     -7.40722453	     94.95424292	     -7.86783525	     11.62855481	     98.17040497	      1.71339679	     27.02025076	     -5.29794419	     -7.40722453	    -27.75264533	      0.95646678	    -22.03026745	     99.91038176	    -35.88882799	     36.20800356	    103.85006761	     83.30669566	   -100.66606699	    -74.13217113	   -165.37908744	    133.54307400	     93.51689963
      1.26000000	    -24.67725110	     -1.05862752	      1.67808293	     -0.30938499	      0.61115756	     -0.59386814	     93.85429332	    -15.99507778	      7.32244184	    100.88797602	      1.76082736	     34.17128454	     -0.34114773	     -7.41492390	     95.87324448	     -7.73834265	     11.59489853	     98.90176513	      1.72616144	     27.40971956	     -4.98569479	     -7.41492390	    -26.95742306	      1.58816920	    -18.64383692	    101.83031808	    -37.12752970	     38.13161464	    103.64898863	     84.10550923	   -103.48913296	    -83.51422128	   -165.80181938	    132.30328643	     95.97430869
      1.27000000	    -25.27762974	     -1.14071300	      1.83905987	     -0.30639512	      0.60824293	     -0.59456768	     94.50019069	    -16.28628399	      7.29019677	    101.36424478	      1.76913982	     34.50517906	     -0.38317438	     -7.42247144	     96.62990608	     -7.75259736	     11.50236618	     99.40973013	      1.73502710	     27.86836868	     -4.73083201	     -7.42247144	    -26.26680678	      2.16032163	    -16.03869131	    103.54322785	    -37.45796729	     39.86976354	    103.16863254	     84.37001982	   -104.11524213	    -90.84969346	   -164.95327564	    131.05211377	     98.84755406
      1.28000000	    -25.06694091	     -0.70582403	      1.91541428	     -0.30433276	      0.60683189	     -0.59372038	     94.60196854	    -16.31360018	      7.83674570	    101.96475211	      1.77962065	     34.77173514	     -0.52727348	     -7.48156705	     96.29434457	     -7.95466874	     10.97223854	     99.68901146	      1.73990148	     28.27583265	     -4.56337444	     -7.48156705	    -26.29821462	     -2.02066706	      1.44023800	    106.71837122	    -65.35559939	     43.05817412	    115.28131301	     78.89273161	    -78.74074152	   -127.78723551	   -135.48833644	    115.88150594	    109.82519261
      1.29000000	    -25.31202887	     -0.52158776	      1.69448580	     -0.30159330	      0.60606897	     -0.59238503	     94.79356342	    -15.93201716	      8.03772746	    102.21972966	      1.78407084	     34.97290965	     -0.73512848	     -7.48429620	     96.31092994	     -8.49066656	     10.73127291	     99.85269645	      1.74275832	     28.86203660	     -4.18862001	     -7.48429620	    -26.35168083	     -2.06112492	      0.33784989	    105.96625639	    -60.25246504	     42.04738143	    112.90675262	     78.57005435	    -78.36495255	   -126.22797054	   -135.05343761	    116.75868576	    109.56710032
      1.30000000	    -25.53391987	     -0.38926561	      1.25743906	     -0.29889611	      0.60633240	     -0.59047434	     94.76737916	    -15.19345856	      8.15408834	    102.24210952	      1.78446145	     35.18440116	     -0.95458281	     -7.48442439	     96.21271938	     -9.26912475	     10.55860115	     99.87191743	      1.74309379	     29.13491184	     -4.08519102	     -7.48442439	    -26.45034789	     -2.46309177	      1.04490683	    106.40387478	    -58.54749052	     41.99217662	    111.93320138	     78.50110122	    -78.09684223	   -127.25021096	   -134.77319125	    116.43096202	    109.50790685
      1.31000000	    -25.72370128	     -0.30909418	      0.99353484	     -0.29607584	      0.60754885	     -0.58915292	     94.55853572	    -14.66165697	      8.21273964	    102.12052779	      1.78233944	     35.38808982	     -1.26910824	     -7.48454992	     95.96051381	     -9.75128637	     10.44511943	     99.74670835	      1.74090848	     29.50183107	     -3.91115382	     -7.48454992	    -26.49826973	     -2.68765590	      1.57221871	    106.90288079	    -56.93211168	     42.04903616	    110.98921185	     78.43442738	    -77.79785132	   -127.89094140	   -134.41048055	    116.17849943	    109.47271607
